<?xml version="1.0" encoding="iso-8859-1"?>
<!-- Generator: Adobe Illustrator 19.0.0, SVG Export Plug-In . SVG Version: 6.00 Build 0)  -->
<svg version="1.1" id="Layer_1" xmlns="http://www.w3.org/2000/svg" xmlns:xlink="http://www.w3.org/1999/xlink" x="0px" y="0px"
	 viewBox="0 0 495 495" style="enable-background:new 0 0 495 495;" xml:space="preserve">
<g>
	<path style="fill:#CD2A00;" d="M360.57,226.14c2.819,0,5.616,0.098,8.393,0.27c2.839-12.999,4.277-26.302,4.277-39.789
		c0-102.9-83.72-186.62-186.62-186.62v104.4c44.11,0,80,35.88,80,80c0,44.11-35.89,80-80,80v221.9l53.14-66.813
		c-8.717-17.802-13.62-37.797-13.62-58.918C226.141,286.445,286.445,226.14,360.57,226.14z"/>
	<path style="fill:#D8D7DA;" d="M266.62,184.401c0-44.12-35.89-80-80-80v160C230.73,264.401,266.62,228.511,266.62,184.401z"/>
	<path style="fill:#FF3501;" d="M106.62,184.401c0-44.12,35.89-80,80-80V0.001C83.72,0.001,0,83.721,0,186.621
		c0,42.37,13.9,82.33,40.23,115.62l146.39,184.06v-221.9C142.51,264.401,106.62,228.511,106.62,184.401z"/>
	<path style="fill:#FFFFFF;" d="M106.62,184.401c0,44.11,35.89,80,80,80v-160C142.51,104.401,106.62,140.281,106.62,184.401z"/>
	<path style="fill:#FFDA44;" d="M348.122,422.174l-62.343-62.343l28.284-28.284l34.059,34.059l12.448-12.448V226.14
		c-74.125,0-134.43,60.305-134.43,134.429c0,21.121,4.902,41.117,13.62,58.918c21.875,44.673,67.806,75.511,120.81,75.511v-85.273
		L348.122,422.174z"/>
	<path style="fill:#FFCD00;" d="M368.963,226.41c-2.777-0.172-5.573-0.27-8.393-0.27v127.018l40.051-40.051l28.284,28.284
		l-68.335,68.335v85.273c74.125,0,134.43-60.305,134.43-134.429C495,289.264,439.193,230.758,368.963,226.41z"/>
	<polygon style="fill:#2488FF;" points="314.063,331.547 285.779,359.831 348.122,422.174 360.57,409.726 428.905,341.391 
		400.621,313.107 360.57,353.158 348.122,365.606 	"/>
</g>
<g>
</g>
<g>
</g>
<g>
</g>
<g>
</g>
<g>
</g>
<g>
</g>
<g>
</g>
<g>
</g>
<g>
</g>
<g>
</g>
<g>
</g>
<g>
</g>
<g>
</g>
<g>
</g>
<g>
</g>
</svg>
